<svg width="12" height="14" viewBox="0 0 12 14" fill="none" xmlns="http://www.w3.org/2000/svg">
<path d="M5.79998 0.608419C5.92376 0.536949 6.07626 0.536949 6.20003 0.608419L11.435 3.63128C11.5588 3.70274 11.635 3.83478 11.635 3.97768V10.0223C11.635 10.1652 11.5588 10.2973 11.435 10.3687L6.20003 13.3916C6.07626 13.4631 5.92376 13.4631 5.79998 13.3916L0.564984 10.3687C0.441236 10.2973 0.365005 10.1652 0.365005 10.0223V3.97768C0.365005 3.83478 0.441236 3.70274 0.564984 3.63128L5.79998 0.608419ZM6.2 1.95588C6.07624 1.88443 5.92377 1.88443 5.80001 1.95588L2.71504 3.73692C2.44836 3.89088 2.44836 4.27579 2.71504 4.42975L5.80001 6.21079C5.92377 6.28224 6.07624 6.28224 6.2 6.21079L9.28498 4.42975C9.55165 4.27579 9.55165 3.89088 9.28498 3.73692L6.2 1.95588ZM10.4683 5.78648C10.4683 5.47856 10.135 5.28611 9.86834 5.44006L6.78334 7.22112C6.65958 7.29257 6.58334 7.42462 6.58334 7.56753V11.1297C6.58334 11.4376 6.91663 11.6301 7.18329 11.4761L10.2683 9.69555C10.3921 9.6241 10.4683 9.49204 10.4683 9.34911V5.78648ZM4.8166 11.4764C5.08327 11.6304 5.41667 11.438 5.41667 11.13V7.56805C5.41667 7.42518 5.34046 7.29315 5.21674 7.22169L2.13174 5.4397C1.86508 5.28567 1.53167 5.47812 1.53167 5.78607V9.34804C1.53167 9.49091 1.60788 9.62294 1.7316 9.6944L4.8166 11.4764Z" fill="white"/>
</svg>
