<svg width="26" height="26" viewBox="0 0 26 26" fill="none" xmlns="http://www.w3.org/2000/svg">
<path d="M12.3492 10.25H20.15C20.6371 10.2501 21.1066 10.4196 21.4801 10.7256L21.6344 10.8652C22.0281 11.259 22.2495 11.7928 22.2496 12.3496V20.1504C22.2495 20.7072 22.0281 21.241 21.6344 21.6348C21.2407 22.0285 20.7068 22.2499 20.15 22.25H12.3492C11.8622 22.2499 11.3927 22.0804 11.0192 21.7744L10.8649 21.6348C10.4711 21.241 10.2497 20.7072 10.2496 20.1504V12.3496L10.2594 12.1436C10.2729 12.0068 10.3005 11.8718 10.3405 11.7402L10.4098 11.5459C10.489 11.3549 10.5955 11.1768 10.7262 11.0176L10.8649 10.8652C11.011 10.7191 11.1774 10.5952 11.359 10.498L11.5455 10.4102C11.7365 10.331 11.9382 10.28 12.1432 10.2598L12.3492 10.25Z" fill="white" fill-opacity="0.39" stroke="white"/>
<path d="M6.49963 16.25H5.84963C4.4088 16.25 3.24963 15.0908 3.24963 13.65V5.85C3.24963 4.40917 4.4088 3.25 5.84963 3.25H13.6496C15.0905 3.25 16.2496 4.40917 16.2496 5.85V6.5M12.3496 9.75H20.1496C20.8392 9.75 21.5005 10.0239 21.9881 10.5115C22.4757 10.9991 22.7496 11.6604 22.7496 12.35V20.15C22.7496 20.8396 22.4757 21.5009 21.9881 21.9885C21.5005 22.4761 20.8392 22.75 20.1496 22.75H12.3496C11.6601 22.75 10.9988 22.4761 10.5112 21.9885C10.0236 21.5009 9.74963 20.8396 9.74963 20.15V12.35C9.74963 12.0086 9.81688 11.6705 9.94755 11.355C10.0782 11.0396 10.2697 10.753 10.5112 10.5115C10.7526 10.2701 11.0392 10.0786 11.3547 9.94791C11.6701 9.81725 12.0082 9.75 12.3496 9.75Z" stroke="white" stroke-width="1.5" stroke-miterlimit="10" stroke-linecap="round" stroke-linejoin="round"/>
</svg>
