<svg width="14" height="14" viewBox="0 0 14 14" fill="none" xmlns="http://www.w3.org/2000/svg">
<g opacity="0.8" clip-path="url(#clip0_21_299)">
<path d="M5.28 8.23103H1.132C1.00274 8.23156 0.878918 8.28314 0.787515 8.37454C0.696111 8.46595 0.644528 8.58976 0.644001 8.71903V12.869C0.644001 13.139 0.863001 13.357 1.132 13.357H5.282C5.552 13.357 5.77 13.138 5.77 12.869V8.71903C5.76947 8.58976 5.71789 8.46595 5.62649 8.37454C5.53508 8.28314 5.41126 8.23156 5.282 8.23103H5.28ZM12.869 8.23103H8.719C8.58974 8.23156 8.46592 8.28314 8.37451 8.37454C8.28311 8.46595 8.23153 8.58976 8.231 8.71903V12.869C8.231 13.139 8.449 13.357 8.719 13.357H12.869C13.139 13.357 13.357 13.138 13.357 12.869V8.71903C13.3565 8.58976 13.3049 8.46595 13.2135 8.37454C13.1221 8.28314 12.9983 8.23156 12.869 8.23103ZM5.28 0.643029H1.132C1.00274 0.643555 0.878918 0.695139 0.787515 0.786542C0.696111 0.877946 0.644528 1.00177 0.644001 1.13103V5.28103C0.644001 5.55103 0.863001 5.76903 1.132 5.76903H5.282C5.552 5.76903 5.77 5.55003 5.77 5.28103V1.13003C5.76947 1.00077 5.71789 0.876946 5.62649 0.785542C5.53508 0.694139 5.41126 0.642555 5.282 0.642029L5.28 0.643029ZM8.146 3.58403C7.845 3.53203 7.845 3.10103 8.146 3.04803C8.67827 2.95546 9.17092 2.70648 9.56113 2.33283C9.95134 1.95918 10.2214 1.47779 10.337 0.950029L10.355 0.867029C10.42 0.570029 10.843 0.567029 10.911 0.864029L10.933 0.961029C11.0529 1.48653 11.3254 1.96488 11.7163 2.33601C12.1072 2.70715 12.599 2.95451 13.13 3.04703C13.432 3.09903 13.432 3.53303 13.13 3.58603C12.599 3.67855 12.1072 3.92591 11.7163 4.29704C11.3254 4.66817 11.0529 5.14653 10.933 5.67203L10.911 5.76803C10.843 6.06503 10.421 6.06303 10.355 5.76603L10.337 5.68303C10.2216 5.15509 9.9516 4.67348 9.56137 4.29964C9.17114 3.9258 8.6784 3.67667 8.146 3.58403Z" stroke="white" stroke-linecap="round" stroke-linejoin="round"/>
</g>
<defs>
<clipPath id="clip0_21_299">
<rect width="14" height="14" fill="white"/>
</clipPath>
</defs>
</svg>
