<svg width="20" height="20" viewBox="0 0 20 20" fill="none" xmlns="http://www.w3.org/2000/svg">
<path d="M11.9996 3.00601C11.9996 2.13301 10.9596 1.67901 10.3196 2.27301L6.44763 5.86601C6.35527 5.95198 6.23382 5.99984 6.10763 6.00001H3.49963C3.10181 6.00001 2.72028 6.15804 2.43897 6.43935C2.15767 6.72065 1.99963 7.10218 1.99963 7.50001V12.5C1.99963 12.8978 2.15767 13.2794 2.43897 13.5607C2.72028 13.842 3.10181 14 3.49963 14H6.10663C6.23268 13.9999 6.35412 14.0474 6.44663 14.133L10.3196 17.727C10.9596 18.32 11.9996 17.867 11.9996 16.994V3.00601ZM15.2536 4.62701C15.3026 4.58327 15.3597 4.54962 15.4217 4.52796C15.4837 4.5063 15.5494 4.49707 15.6149 4.50078C15.6805 4.5045 15.7447 4.52109 15.8038 4.54961C15.863 4.57813 15.9159 4.61802 15.9596 4.66701C17.2713 6.13369 17.9965 8.03234 17.9965 10C17.9965 11.9677 17.2713 13.8663 15.9596 15.333C15.916 15.3826 15.863 15.4231 15.8037 15.4521C15.7444 15.4811 15.6799 15.4981 15.6139 15.5021C15.548 15.506 15.4819 15.4969 15.4196 15.4751C15.3572 15.4534 15.2997 15.4195 15.2505 15.3755C15.2013 15.3314 15.1613 15.278 15.1329 15.2184C15.1044 15.1588 15.088 15.0942 15.0847 15.0282C15.0813 14.9623 15.0911 14.8963 15.1134 14.8341C15.1357 14.7719 15.1701 14.7148 15.2146 14.666C16.3624 13.3826 16.997 11.7213 16.997 9.99951C16.997 8.27774 16.3624 6.61637 15.2146 5.33301C15.1262 5.23421 15.0806 5.10433 15.0879 4.97193C15.0952 4.83953 15.1548 4.71546 15.2536 4.62701ZM14.0786 12.933C14.0217 12.9003 13.9718 12.8566 13.9317 12.8046C13.8916 12.7525 13.8622 12.6931 13.8451 12.6296C13.828 12.5662 13.8236 12.5 13.8321 12.4349C13.8406 12.3698 13.8618 12.3069 13.8946 12.25C14.2896 11.5659 14.4975 10.7899 14.4975 10C14.4975 9.21009 14.2896 8.43409 13.8946 7.75001C13.8585 7.6931 13.8342 7.62946 13.8232 7.56292C13.8123 7.49638 13.8149 7.42831 13.8309 7.36281C13.847 7.29732 13.8761 7.23574 13.9166 7.18179C13.957 7.12784 14.008 7.08263 14.0664 7.04888C14.1248 7.01514 14.1894 6.99355 14.2563 6.98542C14.3232 6.97729 14.3911 6.98278 14.4559 7.00157C14.5207 7.02036 14.581 7.05205 14.6332 7.09475C14.6854 7.13744 14.7284 7.19025 14.7596 7.25001C15.2425 8.08602 15.4968 9.03442 15.497 9.99987C15.4972 10.9653 15.2432 11.9138 14.7606 12.75C14.6943 12.8646 14.5853 12.9482 14.4575 12.9825C14.3296 13.0168 14.1934 12.999 14.0786 12.933Z" fill="white"/>
</svg>
