<svg width="29" height="29" viewBox="0 0 29 29" fill="none" xmlns="http://www.w3.org/2000/svg">
<circle cx="14.4996" cy="14.5" r="14.5" fill="#1F296A" fill-opacity="0.8"/>
<circle cx="14.4996" cy="14.5" r="14" stroke="white" stroke-opacity="0.3"/>
<path d="M15.0315 18.1668C15.4736 18.1668 15.8975 18.3424 16.21 18.655C16.5226 18.9676 16.6982 19.3915 16.6982 19.8335C16.6982 20.2755 16.5226 20.6995 16.21 21.012C15.8975 21.3246 15.4736 21.5002 15.0315 21.5002C14.5895 21.5002 14.1656 21.3246 13.853 21.012C13.5405 20.6995 13.3649 20.2755 13.3649 19.8335C13.3649 19.3915 13.5405 18.9676 13.853 18.655C14.1656 18.3424 14.5895 18.1668 15.0315 18.1668ZM15.0315 12.3335C15.4736 12.3335 15.8975 12.5091 16.21 12.8217C16.5226 13.1342 16.6982 13.5582 16.6982 14.0002C16.6982 14.4422 16.5226 14.8661 16.21 15.1787C15.8975 15.4913 15.4736 15.6669 15.0315 15.6669C14.5895 15.6669 14.1656 15.4913 13.853 15.1787C13.5405 14.8661 13.3649 14.4422 13.3649 14.0002C13.3649 13.5582 13.5405 13.1342 13.853 12.8217C14.1656 12.5091 14.5895 12.3335 15.0315 12.3335ZM15.0315 6.50018C15.4736 6.50018 15.8975 6.67578 16.21 6.98834C16.5226 7.3009 16.6982 7.72482 16.6982 8.16685C16.6982 8.60888 16.5226 9.0328 16.21 9.34536C15.8975 9.65792 15.4736 9.83352 15.0315 9.83352C14.5895 9.83352 14.1656 9.65792 13.853 9.34536C13.5405 9.0328 13.3649 8.60888 13.3649 8.16685C13.3649 7.72482 13.5405 7.3009 13.853 6.98834C14.1656 6.67578 14.5895 6.50018 15.0315 6.50018Z" fill="white"/>
</svg>
