<svg width="14" height="14" viewBox="0 0 14 14" fill="none" xmlns="http://www.w3.org/2000/svg">
<path d="M11.875 0.8125H4.375C3.82799 0.8125 3.30339 1.0298 2.91659 1.41659C2.5298 1.80339 2.3125 2.32799 2.3125 2.875V3.0625H2.125C1.57799 3.0625 1.05339 3.2798 0.666592 3.66659C0.279799 4.05339 0.0625 4.57799 0.0625 5.125V11.125C0.0625 11.672 0.279799 12.1966 0.666592 12.5834C1.05339 12.9702 1.57799 13.1875 2.125 13.1875H9.625C10.172 13.1875 10.6966 12.9702 11.0834 12.5834C11.4702 12.1966 11.6875 11.672 11.6875 11.125V10.9375H11.875C12.422 10.9375 12.9466 10.7202 13.3334 10.3334C13.7202 9.94661 13.9375 9.42201 13.9375 8.875V2.875C13.9375 2.32799 13.7202 1.80339 13.3334 1.41659C12.9466 1.0298 12.422 0.8125 11.875 0.8125ZM3.4375 2.875C3.4375 2.62636 3.53627 2.3879 3.71209 2.21209C3.8879 2.03627 4.12636 1.9375 4.375 1.9375H11.875C12.1236 1.9375 12.3621 2.03627 12.5379 2.21209C12.7137 2.3879 12.8125 2.62636 12.8125 2.875V7.525L11.11 6.0925C11.0546 6.0443 10.9901 6.00759 10.9203 5.98449C10.8506 5.9614 10.777 5.95238 10.7037 5.95796C10.6305 5.96354 10.559 5.98361 10.4936 6.01701C10.4282 6.0504 10.37 6.09646 10.3225 6.1525L9.52 7.0975L6.52 4.1875C6.47205 4.13033 6.41247 4.08403 6.34522 4.0517C6.27797 4.01937 6.2046 4.00174 6.13 4C6.05271 4.00291 5.97686 4.02174 5.90717 4.05529C5.83749 4.08884 5.77547 4.1364 5.725 4.195L3.4375 6.9175V2.875ZM4.375 9.8125C4.12636 9.8125 3.8879 9.71373 3.71209 9.53791C3.53627 9.3621 3.4375 9.12364 3.4375 8.875V8.65L6.19 5.41L8.785 7.9525L7.21 9.8125H4.375ZM10.5625 11.125C10.5625 11.3736 10.4637 11.6121 10.2879 11.7879C10.1121 11.9637 9.87364 12.0625 9.625 12.0625H2.125C1.87636 12.0625 1.6379 11.9637 1.46209 11.7879C1.28627 11.6121 1.1875 11.3736 1.1875 11.125V5.125C1.1875 4.87636 1.28627 4.6379 1.46209 4.46209C1.6379 4.28627 1.87636 4.1875 2.125 4.1875H2.3125V8.875C2.3125 9.42201 2.5298 9.94661 2.91659 10.3334C3.30339 10.7202 3.82799 10.9375 4.375 10.9375H10.5625V11.125ZM11.875 9.8125H8.6875L10.8175 7.3075L12.79 8.98C12.7677 9.20746 12.6618 9.41854 12.4927 9.57235C12.3237 9.72615 12.1035 9.81173 11.875 9.8125Z" fill="white"/>
</svg>
