<svg width="9" height="9" viewBox="0 0 9 9" fill="none" xmlns="http://www.w3.org/2000/svg">
<path d="M5.44457 5.27624H6.61372C6.71505 5.27624 6.79892 5.30944 6.86533 5.37585C6.93173 5.44226 6.96478 5.52597 6.96447 5.62699C6.96416 5.728 6.93095 5.81187 6.86486 5.87859C6.79876 5.94531 6.71505 5.97836 6.61372 5.97773H5.44457C5.34324 5.97773 5.25953 5.94453 5.19344 5.87812C5.12734 5.81171 5.09413 5.728 5.09382 5.62699C5.09351 5.52597 5.12672 5.44226 5.19344 5.37585C5.26015 5.30944 5.34387 5.27624 5.44457 5.27624ZM5.79532 8.08221V7.84838H5.44457C5.34324 7.84838 5.25953 7.81518 5.19344 7.74877C5.12734 7.68236 5.09413 7.59865 5.09382 7.49763C5.09351 7.39662 5.12672 7.31291 5.19344 7.2465C5.26015 7.18009 5.34387 7.14689 5.44457 7.14689H5.79532V6.91306C5.79532 6.81173 5.82852 6.72802 5.89493 6.66192C5.96134 6.59582 6.04505 6.56262 6.14606 6.56231C6.24708 6.562 6.33094 6.5952 6.39766 6.66192C6.46438 6.72864 6.49743 6.81235 6.49681 6.91306V8.08221C6.49681 8.18354 6.4636 8.2674 6.3972 8.33381C6.33079 8.40022 6.24708 8.43327 6.14606 8.43296C6.04505 8.43264 5.96134 8.39944 5.89493 8.33334C5.82852 8.26725 5.79532 8.18354 5.79532 8.08221ZM7.31522 7.14689H8.48437C8.5857 7.14689 8.66956 7.18009 8.73597 7.2465C8.80238 7.31291 8.83543 7.39662 8.83512 7.49763C8.8348 7.59865 8.8016 7.68251 8.73551 7.74923C8.66941 7.81595 8.5857 7.849 8.48437 7.84838H7.31522C7.21389 7.84838 7.13018 7.81518 7.06408 7.74877C6.99799 7.68236 6.96478 7.59865 6.96447 7.49763C6.96416 7.39662 6.99736 7.31291 7.06408 7.2465C7.1308 7.18009 7.21451 7.14689 7.31522 7.14689ZM7.43213 6.21156V5.04241C7.43213 4.94108 7.46533 4.85737 7.53174 4.79127C7.59815 4.72518 7.68186 4.69197 7.78288 4.69166C7.88389 4.69135 7.96776 4.72455 8.03448 4.79127C8.1012 4.85799 8.13425 4.94171 8.13362 5.04241V5.27624H8.48437C8.5857 5.27624 8.66956 5.30944 8.73597 5.37585C8.80238 5.44226 8.83543 5.52597 8.83512 5.62699C8.8348 5.728 8.8016 5.81187 8.73551 5.87859C8.66941 5.94531 8.5857 5.97836 8.48437 5.97773H8.13362V6.21156C8.13362 6.31289 8.10042 6.39676 8.03401 6.46316C7.9676 6.52957 7.88389 6.56262 7.78288 6.56231C7.68186 6.562 7.59815 6.52879 7.53174 6.4627C7.46533 6.3966 7.43213 6.31289 7.43213 6.21156ZM4.62616 0.950369C3.71422 0.950369 2.94071 1.26807 2.30562 1.90346C1.67054 2.53886 1.35284 3.31237 1.35253 4.224C1.35253 4.78519 1.47927 5.29962 1.73274 5.76728C1.98621 6.23495 2.32714 6.61687 2.75551 6.91306V6.09465C2.75551 5.96214 2.80041 5.85115 2.8902 5.76167C2.97999 5.67219 3.09098 5.6273 3.22318 5.62699C3.35537 5.62667 3.46652 5.67157 3.55662 5.76167C3.64672 5.85178 3.69146 5.96277 3.69084 6.09465V7.96529C3.69084 8.0978 3.64594 8.20895 3.55615 8.29874C3.46636 8.38853 3.35537 8.43327 3.22318 8.43296H1.35253C1.22003 8.43296 1.10903 8.38806 1.01955 8.29827C0.930075 8.20848 0.885179 8.09749 0.884868 7.96529C0.884556 7.8331 0.929451 7.72211 1.01955 7.63232C1.10966 7.54253 1.22065 7.49763 1.35253 7.49763H1.98387C1.50062 7.10791 1.1187 6.63059 0.838101 6.06565C0.557504 5.50072 0.417206 4.88683 0.417206 4.224C0.417206 3.63942 0.528353 3.09195 0.750649 2.58157C0.972944 2.0712 1.27287 1.62692 1.65043 1.24874C2.02799 0.870554 2.47227 0.570471 2.98327 0.348488C3.49426 0.126505 4.0419 0.0153569 4.62616 0.0150452C5.50692 0.0150452 6.30008 0.260568 7.00562 0.751612C7.71117 1.24266 8.21967 1.874 8.53114 2.64564C8.5779 2.77035 8.5779 2.89116 8.53114 3.00808C8.48437 3.125 8.39863 3.20684 8.27392 3.2536C8.14921 3.30037 8.02637 3.30037 7.9054 3.2536C7.78444 3.20684 7.70073 3.1211 7.65427 2.99639C7.41265 2.38843 7.0209 1.89551 6.47904 1.51764C5.93717 1.13977 5.31955 0.95068 4.62616 0.950369Z" fill="white"/>
</svg>
